<svg xmlns="http://www.w3.org/2000/svg" xmlns:xlink="http://www.w3.org/1999/xlink" version="1.1" x="0px" y="0px" viewBox="0 0 512 640" enable-background="new 0 0 512 512" xml:space="preserve"><path d="M443.5,134.1c0-36.2-29.4-65.6-65.6-65.6H134.1c-36.2,0-65.6,29.4-65.6,65.6c0,28.3,18.1,52.2,43.3,61.4l-23,207.9  c-0.7,10.3,2.9,20.6,10,28.2c7.1,7.6,17.1,11.9,27.4,11.9h259.7c10.4,0,20.4-4.4,27.4-11.9c7.1-7.6,10.7-17.9,9.9-28.9l-22.7-207.2  C425.5,186.1,443.5,162.3,443.5,134.1z M293.5,143.5c10.4,0,18.8,8.4,18.8,18.7s-8.4,18.7-18.8,18.7c-10.4,0-18.8-8.4-18.8-18.7  S283.1,143.5,293.5,143.5z M199.8,199.7c10.4,0,18.8,8.4,18.8,18.7s-8.4,18.7-18.8,18.7c-10.4,0-18.8-8.4-18.8-18.7  S189.4,199.7,199.8,199.7z M199.8,368.3c-10.4,0-18.8-8.4-18.8-18.7c0-10.3,8.4-18.7,18.8-18.7c10.4,0,18.8,8.4,18.8,18.7  C218.5,359.9,210.1,368.3,199.8,368.3z M274.8,293.3c-10.4,0-18.8-8.4-18.8-18.7c0-10.3,8.4-18.7,18.8-18.7  c10.4,0,18.8,8.4,18.8,18.7C293.5,285,285.1,293.3,274.8,293.3z M312.3,368.3c-10.4,0-18.8-8.4-18.8-18.7c0-10.3,8.4-18.7,18.8-18.7  c10.4,0,18.8,8.4,18.8,18.7C331,359.9,322.6,368.3,312.3,368.3z"/><text x="0" y="527" fill="#000000" font-size="5px" font-weight="bold" font-family="'Helvetica Neue', Helvetica, Arial-Unicode, Arial, Sans-serif">Created by Creative Stall</text><text x="0" y="532" fill="#000000" font-size="5px" font-weight="bold" font-family="'Helvetica Neue', Helvetica, Arial-Unicode, Arial, Sans-serif">from the Noun Project</text></svg>