<svg xmlns="http://www.w3.org/2000/svg" xmlns:xlink="http://www.w3.org/1999/xlink" version="1.1" x="0px" y="0px" viewBox="0 0 512 640" enable-background="new 0 0 512 512" xml:space="preserve"><path d="M377.2,125.3c-13.1-23.2-37.8-38-65-38c-12.7,0-24.9,3.2-35.7,9.1c-14-17.2-35.2-27.8-58.1-27.8c-34.9,0-64.3,24-72.6,56.3  c-41.9-1.5-77.4,32.8-77.4,75c0,41.4,33.6,75,75,75c3.3,0,6.5-0.5,9.7-1l46.5,76.1v74.8c0,10.4,8.4,18.8,18.8,18.8h75  c10.4,0,18.8-8.4,18.8-18.8v-73.4l48.3-77.3c2.6,0.3,5.2,0.7,7.9,0.7c41.4,0,75-33.6,75-75C443.5,161.4,414.5,129.6,377.2,125.3z   M237.2,331h-5.1l-34.7-56.9c13.9,0.4,27.8-2.6,39.8-9.6V331z M280.7,331h-6v-56.8c16.9,0,33.8-5.4,46.9-15.9c1,0.8,2.2,1.4,3.2,2.2  L280.7,331z"/><text x="0" y="527" fill="#000000" font-size="5px" font-weight="bold" font-family="'Helvetica Neue', Helvetica, Arial-Unicode, Arial, Sans-serif">Created by Creative Stall</text><text x="0" y="532" fill="#000000" font-size="5px" font-weight="bold" font-family="'Helvetica Neue', Helvetica, Arial-Unicode, Arial, Sans-serif">from the Noun Project</text></svg>