<svg xmlns="http://www.w3.org/2000/svg" xmlns:xlink="http://www.w3.org/1999/xlink" version="1.1" x="0px" y="0px" viewBox="0 0 512 640" enable-background="new 0 0 512 512" xml:space="preserve"><g><path d="M386.1,144.2C359.6,97.9,309.7,68.5,256,68.5c-53.8,0-103.6,29.4-130.1,75.7c-32.2,4.1-57.2,31.7-57.2,65   c0,26.8,15.9,49.5,39.9,59.7l38.8,174.6h217.4l38.7-174.3c23.7-9.9,39.9-32.9,39.9-59.9C443.4,175.9,418.3,148.3,386.1,144.2z    M334.7,406H177.3l-29.1-131.2h215.6L334.7,406z"/><path d="M218.5,387.3c10.3,0,18.7-8.4,18.7-18.7v-56.2c0-10.4-8.4-18.7-18.7-18.7c-10.3,0-18.7,8.4-18.7,18.7v56.2   C199.8,378.9,208.2,387.3,218.5,387.3z"/><path d="M293.5,387.3c10.3,0,18.7-8.4,18.7-18.7v-56.2c0-10.4-8.4-18.7-18.7-18.7c-10.3,0-18.7,8.4-18.7,18.7v56.2   C274.7,378.9,283.1,387.3,293.5,387.3z"/></g><text x="0" y="527" fill="#000000" font-size="5px" font-weight="bold" font-family="'Helvetica Neue', Helvetica, Arial-Unicode, Arial, Sans-serif">Created by Creative Stall</text><text x="0" y="532" fill="#000000" font-size="5px" font-weight="bold" font-family="'Helvetica Neue', Helvetica, Arial-Unicode, Arial, Sans-serif">from the Noun Project</text></svg>