<svg xmlns="http://www.w3.org/2000/svg" xmlns:xlink="http://www.w3.org/1999/xlink" version="1.1" x="0px" y="0px" viewBox="0 0 512 640" enable-background="new 0 0 512 512" xml:space="preserve"><g><rect x="162.3" y="68.5" width="187.5" height="37.5"/><path d="M106,143.5V181h21.1l12.5,75h63.6c7.8-21.8,28.4-37.5,52.8-37.5s45,15.7,52.8,37.5h63.6l12.5-75H406v-37.5H106z"/><path d="M274.8,274.8c0-10.3-8.4-18.8-18.8-18.8c-10.3,0-18.8,8.4-18.8,18.8c0,10.3,8.4,18.8,18.8,18.8   C266.3,293.5,274.8,285.1,274.8,274.8z"/><path d="M256,331c-24.4,0-45-15.7-52.8-37.5h-58.6l20,150h182.8l20-150h-58.6C301,315.3,280.4,331,256,331z"/></g><text x="0" y="527" fill="#000000" font-size="5px" font-weight="bold" font-family="'Helvetica Neue', Helvetica, Arial-Unicode, Arial, Sans-serif">Created by Creative Stall</text><text x="0" y="532" fill="#000000" font-size="5px" font-weight="bold" font-family="'Helvetica Neue', Helvetica, Arial-Unicode, Arial, Sans-serif">from the Noun Project</text></svg>