<svg xmlns:svg="http://www.w3.org/2000/svg" xmlns="http://www.w3.org/2000/svg" id="svg6782" version="1.1" xml:space="preserve" width="100" height="100" viewBox="0 0 100 100"><title id="title48598">Google Plus</title><g id="g6790" transform="matrix(1.25,0,0,-1.25,-74.242172,20.573574)"><path id="path47915" transform="scale(1,-1)" d="M139.39374 23.54114A40 40 0 0 1 99.55134 63.540829 40 40 0 0 1 59.39498 23.856342 40 40 0 0 1 98.92094-16.456066 40 40 0 0 1 139.38877 22.910753" style="fill-opacity:1;fill:#dc483c"/><g id="g48620" transform="translate(4.1984465,1.1048544)"><rect transform="scale(1,-1)" y="13.596893" x="117.0881" height="18.285704" width="5.0007067" id="rect48543" style="fill-opacity:1;fill:#fff"/><rect transform="matrix(0,-1,-1,0,0,0)" y="-129.02461" x="20.416685" height="18.285715" width="4.9897275" id="rect48543-0" style="fill-opacity:1;fill:#fff"/></g><path d="M87.511709-2.5231229C77.41916-2.6537416 67.173252-12.185294 67.727463-24.116613c0.573515-12.346863 11.051343-20.14551 20.764697-19.986638 9.31138 0.152298 19.12281 6.128174 20.72322 18.748391 0.52176 4.114363-0.41619 6.748081-0.41619 6.748081l-19.58097 0.223571-0.01795-7.960941 10.047933-0.01517c0.346359-1.955959-2.830947-8.568458-10.614706-8.513558-7.783758 0.0549-11.664464 6.241824-11.812023 11.340338-0.14756 5.098514 2.361934 9.699461 8.782324 11.46331 6.42039 1.763851 10.732299-2.979801 10.732299-2.979801l6.650833 6.6011018c-0.65415 0.634707-5.382674 6.0554232-15.475223 5.9248043z" id="path48610" style="fill-opacity:1;fill-rule:evenodd;fill:#fff"/></g></svg>