<svg xmlns="http://www.w3.org/2000/svg" xmlns:xlink="http://www.w3.org/1999/xlink" version="1.1" x="0px" y="0px" viewBox="0 0 512 640" enable-background="new 0 0 512 512" xml:space="preserve"><g><g><path d="M201.2,309.1c10.8-7.2,24.7-7.2,35.4,0c23.4,15.6,53.7,15.6,77,0c10.8-7.2,24.7-7.2,35.4,0c11.7,7.8,25.1,11.7,38.5,11.7    c13.4,0,26.8-3.9,38.5-11.7l28.1-18.7c8.6-5.7,10.9-17.4,5.2-26c-5.7-8.6-17.4-11-26-5.2l-28.1,18.7c-10.8,7.2-24.7,7.2-35.4,0    c-23.4-15.6-53.6-15.6-77,0c-10.8,7.2-24.7,7.2-35.4,0c-23.4-15.6-53.6-15.6-77,0c-10.8,7.2-24.7,7.2-35.4,0l-28.1-18.7    c-8.6-5.8-20.3-3.4-26,5.2c-5.8,8.6-3.4,20.3,5.2,26l28.1,18.7C147.6,324.7,177.9,324.7,201.2,309.1z"/></g><g><path d="M275.2,68.5c-110.4,0-187.5,61.7-187.5,150v18.7h375v-18.7C462.7,130.2,385.6,68.5,275.2,68.5z"/></g><g><path d="M87.7,387.2c0,31,25.2,56.2,56.2,56.2h262.5c31,0,56.2-25.2,56.2-56.2V331h-375V387.2z"/></g></g><text x="0" y="527" fill="#000000" font-size="5px" font-weight="bold" font-family="'Helvetica Neue', Helvetica, Arial-Unicode, Arial, Sans-serif">Created by Creative Stall</text><text x="0" y="532" fill="#000000" font-size="5px" font-weight="bold" font-family="'Helvetica Neue', Helvetica, Arial-Unicode, Arial, Sans-serif">from the Noun Project</text></svg>