<svg xmlns="http://www.w3.org/2000/svg" xmlns:xlink="http://www.w3.org/1999/xlink" version="1.1" x="0px" y="0px" viewBox="0 0 512 640" enable-background="new 0 0 512 512" xml:space="preserve"><g><path d="M153.9,187.3c10.4,0,18.7-8.4,18.7-18.7c0-9.2,9.1-15.5,15.7-10.7c4.9,3.5,11.1,4.5,16.8,2.7c5.7-1.8,10.2-6.3,12-12   c1.8-5.6,9.1-10.5,14.9-6.3c4.9,3.5,11.1,4.5,16.8,2.7c5.7-1.9,10.2-6.3,12-12c1.3-4,4.8-8,9.6-8c4.8,0,8.3,4,9.6,8   c1.9,5.7,6.3,10.2,12,12c1.5,0.5,3,0.2,4.5,0.4l-31.9,19.9c-8.8,5.5-11.5,17.1-6,25.8c3.6,5.7,9.7,8.8,15.9,8.8   c3.4,0,6.8-0.9,9.9-2.8l64.6-40.4c2.7,2.3,4.6,5.8,4.6,10.1c0,0.9-0.1,1.7-0.3,2.6c-1.4,7.7,2.2,15.5,8.9,19.5   c2.9,1.7,5.9,5.5,5.9,11.1H406c0-13.6-5.4-26.5-14.6-35.8c-0.5-10.4-4.2-19.8-9.9-27.5l53.2-33.3c8.8-5.5,11.5-17.1,6-25.8   c-5.5-8.8-17.1-11.5-25.8-6l-69.7,43.6c-10.7-9.4-25.2-13.8-39.2-11.3c-8.9-10.2-21.6-16.4-35.4-16.4c-13.8,0-26.5,6.2-35.4,16.4   c-16.1-3-33,3.3-43.7,15.6c-2.7-0.5-5.5-0.8-8.4-0.8c-21.1,0-39.1,14.4-45.5,34.2c-18.4,7-31.6,25.4-31.6,47h37.5   C143.5,192.9,148.2,187.3,153.9,187.3z"/><path d="M68.5,218.5v18.7c0,75,44.4,139.7,108.1,169.6c-8.2,2-14.4,9.1-14.4,17.9c0,10.4,8.4,18.7,18.7,18.7h150   c10.4,0,18.7-8.4,18.7-18.7c0-8.8-6.2-15.9-14.4-17.9c63.8-30,108.1-94.6,108.1-169.6v-18.7H68.5z M277.9,360.2L256,327.3   l-21.9,32.8l-31.2-20.8l37.5-56.2c3.5-5.2,9.3-8.3,15.6-8.3c6.3,0,12.1,3.1,15.6,8.3l37.5,56.2L277.9,360.2z"/></g><text x="0" y="527" fill="#000000" font-size="5px" font-weight="bold" font-family="'Helvetica Neue', Helvetica, Arial-Unicode, Arial, Sans-serif">Created by Creative Stall</text><text x="0" y="532" fill="#000000" font-size="5px" font-weight="bold" font-family="'Helvetica Neue', Helvetica, Arial-Unicode, Arial, Sans-serif">from the Noun Project</text></svg>